<svg width="73" height="73" viewBox="0 0 73 73" fill="none" xmlns="http://www.w3.org/2000/svg">
<path d="M45.625 40.7583C44.1425 39.5611 42.2646 38.964 40.3629 39.0854H27.375V52.3775H40.5758C42.4188 52.4316 44.2168 51.8034 45.625 50.6133C46.2925 49.9705 46.8165 49.1937 47.1624 48.3339C47.5084 47.4742 47.6686 46.551 47.6325 45.625C47.6649 44.7175 47.5025 43.8136 47.1562 42.9741C46.8099 42.1346 46.2878 41.3791 45.625 40.7583ZM43.8 32.1808C44.4133 31.6344 44.8957 30.957 45.2116 30.1988C45.5276 29.4406 45.6688 28.621 45.625 27.8008C45.7145 26.9728 45.6161 26.1352 45.3369 25.3505C45.0578 24.5658 44.6052 23.8542 44.0129 23.2687C42.7114 22.3435 41.1366 21.8829 39.5417 21.9608H27.375V33.7017H39.5417C41.1363 33.7329 42.6896 33.1935 43.9217 32.1808H43.8ZM60.8333 0H12.1667C8.93987 0 5.84523 1.28184 3.56353 3.56353C1.28184 5.84523 0 8.93987 0 12.1667V60.8333C0 64.0601 1.28184 67.1548 3.56353 69.4365C5.84523 71.7182 8.93987 73 12.1667 73H60.8333C64.0601 73 67.1548 71.7182 69.4365 69.4365C71.7182 67.1548 73 64.0601 73 60.8333V12.1667C73 8.93987 71.7182 5.84523 69.4365 3.56353C67.1548 1.28184 64.0601 0 60.8333 0ZM54.1721 51.2521C53.5844 52.7319 52.6196 54.0322 51.3737 55.0238C49.9259 56.1762 48.2603 57.0246 46.4767 57.5179C44.177 58.1954 41.7864 58.5135 39.3896 58.4608H19.8317V15.8775H40.515C43.7623 15.7157 46.9716 16.6357 49.64 18.4933C50.8203 19.4346 51.753 20.6497 52.3573 22.0331C52.9616 23.4166 53.2191 24.9266 53.1075 26.4321C53.2201 28.3676 52.7314 30.2906 51.7083 31.9375C50.5772 33.5281 49.0154 34.7628 47.2067 35.4963C48.4152 35.6833 49.5748 36.1074 50.6188 36.7443C51.6628 37.3811 52.5706 38.2181 53.29 39.2071C54.7017 41.3513 55.4137 43.8805 55.3279 46.4463C55.2826 48.1113 54.8888 49.7485 54.1721 51.2521Z" fill="#131313"/>
</svg>
