<svg width="68" height="77" viewBox="0 0 68 77" fill="none" xmlns="http://www.w3.org/2000/svg">
<path d="M67.5476 0.537931C67.2331 0.19531 66.7912 0 66.3261 0H1.65517C1.19007 0 0.748134 0.19531 0.433651 0.537931C0.119169 0.880552 -0.0347623 1.34069 0.00661702 1.80248L5.83282 67.061C5.89406 67.7429 6.3691 68.3172 7.02786 68.5059L33.5272 76.075C33.6745 76.1164 33.8284 76.1379 33.9807 76.1379C34.133 76.1379 34.2869 76.1164 34.4342 76.075L60.9567 68.5059C61.6154 68.3172 62.0905 67.7429 62.1517 67.061L67.9746 1.80248C68.016 1.34069 67.8604 0.880552 67.5476 0.537931ZM12.4734 44.6963L24.0596 47.9106V14.8966H30.6803V57.931L12.4734 52.8811V44.6963ZM55.5972 33.1034L53.8527 53.3793L37.301 57.931V50.3156L48.4734 47.2452L48.8872 41.0383L37.301 43.0345V14.8966H57.163L56.592 21.5172H43.9216V34.7586L55.5972 33.1034Z" fill="#131313"/>
</svg>
