<svg width="107" height="66" viewBox="0 0 107 66" fill="none" xmlns="http://www.w3.org/2000/svg">
<path d="M52.8814 65.5351C52.5303 65.5351 52.1792 65.4348 51.8616 65.2676L48.6516 63.3616C48.1667 63.0941 48.4008 62.9938 48.568 62.9437C49.2033 62.7263 49.337 62.6762 50.0225 62.2749C50.0894 62.2415 50.1897 62.2582 50.2566 62.2916L52.7309 63.7629C52.8145 63.813 52.9483 63.813 53.0319 63.7629L62.6953 58.1788C62.7789 58.1287 62.8458 58.0283 62.8458 57.9113V46.7599C62.8458 46.6429 62.7956 46.5426 62.6953 46.4924L53.0319 40.9251C52.9483 40.8749 52.8312 40.8749 52.7309 40.9251L43.0675 46.4924C42.9672 46.5426 42.917 46.6596 42.917 46.7599V57.9113C42.917 58.0116 42.9839 58.1119 43.0675 58.1621L45.7091 59.6835C47.1469 60.4024 48.033 59.5498 48.033 58.7138V47.6962C48.033 47.5457 48.15 47.4119 48.3172 47.4119H49.5377C49.6881 47.4119 49.8219 47.529 49.8219 47.6962V58.7138C49.8219 60.6365 48.7853 61.7232 46.963 61.7232C46.4112 61.7232 45.9598 61.7232 44.7394 61.1213L42.1981 59.6668C41.5795 59.299 41.1783 58.6302 41.1783 57.9113V46.7599C41.1783 46.041 41.5628 45.3555 42.1981 45.0044L51.8616 39.4204C52.4802 39.0693 53.2827 39.0693 53.8845 39.4204L63.548 45.0044C64.1666 45.3723 64.5678 46.041 64.5678 46.7599V57.9113C64.5678 58.6302 64.1833 59.3157 63.548 59.6668L53.8845 65.2508C53.6003 65.4348 53.2492 65.5351 52.8814 65.5351ZM60.6891 54.5341C60.6891 52.4443 59.2847 51.8926 56.3087 51.4913C53.2994 51.0901 52.9984 50.8894 52.9984 50.1873C52.9984 49.6021 53.2492 48.833 55.4728 48.833C57.4623 48.833 58.198 49.2677 58.4989 50.6052C58.5323 50.739 58.6327 50.8226 58.7664 50.8226H60.0203C60.1039 50.8226 60.1708 50.7891 60.2209 50.739C60.2711 50.6721 60.3045 50.6052 60.2878 50.5216C60.0872 48.2144 58.5658 47.1444 55.4728 47.1444C52.7142 47.1444 51.0758 48.3148 51.0758 50.2541C51.0758 52.3774 52.7142 52.9458 55.3558 53.2133C58.5156 53.531 58.7664 53.9824 58.7664 54.601C58.7664 55.6877 57.897 56.1391 55.8573 56.1391C53.2994 56.1391 52.7309 55.5038 52.547 54.2332C52.5303 54.0994 52.4133 53.9991 52.2628 53.9991H51.0089C50.8584 53.9991 50.7247 54.1162 50.7247 54.2833C50.7247 55.9051 51.6108 57.8444 55.8406 57.8444C58.9336 57.8444 60.6891 56.6407 60.6891 54.5341ZM69.8008 46.158C69.8008 47.1779 68.9648 48.0138 67.945 48.0138C66.9252 48.0138 66.0892 47.1779 66.0892 46.158C66.0892 45.1048 66.9586 44.3023 67.945 44.3023C68.9481 44.2855 69.8008 45.1048 69.8008 46.158ZM69.4998 46.158C69.4998 45.2887 68.7977 44.6032 67.9283 44.6032C67.0756 44.6032 66.3734 45.2887 66.3734 46.158C66.3734 47.0274 67.0756 47.7296 67.9283 47.7296C68.7977 47.7129 69.4998 47.0107 69.4998 46.158ZM68.7475 47.1946H68.3128C68.2961 47.0943 68.2292 46.5593 68.2292 46.5426C68.1958 46.4255 68.1623 46.3587 68.0119 46.3587H67.6441V47.1946H67.2428V45.1048H67.9617C68.2125 45.1048 68.6973 45.1048 68.6973 45.6565C68.6973 46.041 68.4466 46.1246 68.2961 46.1748C68.5803 46.1915 68.597 46.3754 68.6472 46.6429C68.6639 46.8101 68.6973 47.0943 68.7475 47.1946ZM68.2794 45.7233C68.2794 45.4391 68.0788 45.4391 67.9784 45.4391H67.6441V46.0243H67.9617C68.2292 46.0243 68.2794 45.8404 68.2794 45.7233ZM22.9548 21.8991C22.9548 21.4477 22.7208 21.0465 22.3363 20.8291L12.0877 14.9274C11.9205 14.8271 11.7198 14.7769 11.5192 14.7602H11.4189C11.2183 14.7602 11.0344 14.8271 10.8505 14.9274L0.618594 20.8291C0.234063 21.0465 0 21.4644 0 21.8991L0.0167188 37.7819C0.0167188 37.9993 0.13375 38.1999 0.317656 38.3169C0.501562 38.434 0.735625 38.434 0.93625 38.3169L7.02187 34.8227C7.40641 34.5887 7.64047 34.1874 7.64047 33.7527V26.3296C7.64047 25.8949 7.87453 25.4769 8.25906 25.2596L10.8505 23.7716C11.0511 23.6546 11.2517 23.6044 11.4691 23.6044C11.6864 23.6044 11.9038 23.6546 12.0877 23.7716L14.6791 25.2596C15.0636 25.4769 15.2977 25.8949 15.2977 26.3296V33.7527C15.2977 34.1874 15.5317 34.6054 15.9162 34.8227L22.0019 38.3169C22.1858 38.434 22.4366 38.434 22.6205 38.3169C22.8044 38.2166 22.9214 37.9993 22.9214 37.7819L22.9548 21.8991ZM78.9961 4.56179V34.0537C78.9961 34.4883 78.762 34.9063 78.3775 35.1237L68.1289 41.0421C67.7444 41.2594 67.2763 41.2594 66.8917 41.0421L56.6431 35.1237C56.2586 34.9063 56.0245 34.4883 56.0245 34.0537V22.2168C56.0245 21.7821 56.2586 21.3641 56.6431 21.1468L66.8917 15.2284C67.2763 15.011 67.7444 15.011 68.1289 15.2284L70.6869 16.6996C70.9711 16.8668 71.3389 16.6494 71.3389 16.3318V0.616166C71.3389 0.148041 71.8405 -0.152897 72.2584 0.0811656L78.3608 3.49179C78.7453 3.69242 78.9961 4.11038 78.9961 4.56179ZM71.3055 26.1123C71.3055 25.9952 71.2386 25.8949 71.155 25.8448L67.6441 23.8051C67.5437 23.7549 67.4267 23.7549 67.3264 23.8051L63.8155 25.8448C63.7152 25.8949 63.665 25.9952 63.665 26.1123V30.1749C63.665 30.2919 63.7319 30.3923 63.8155 30.4424L67.3264 32.4654C67.4267 32.5155 67.5437 32.5155 67.6273 32.4654L71.1383 30.4424C71.2386 30.3923 71.2887 30.2919 71.2887 30.1749V26.1123H71.3055ZM106.381 25.9952C106.766 25.7779 107 25.3599 107 24.9252V22.0663C107 21.6316 106.766 21.2137 106.381 20.9963L96.1997 15.0779C95.8152 14.8605 95.347 14.8605 94.9625 15.0779L84.7139 20.9963C84.3294 21.2137 84.0953 21.6316 84.0953 22.0663V33.9032C84.0953 34.3546 84.3294 34.7559 84.7139 34.9732L94.8956 40.7746C95.2634 40.9919 95.7316 40.9919 96.1161 40.7746L102.269 37.3473C102.687 37.1132 102.687 36.5113 102.269 36.2773L91.9531 30.3588C91.7525 30.2418 91.6355 30.0412 91.6355 29.8238V26.1123C91.6355 25.8949 91.7525 25.6943 91.9531 25.5773L95.1631 23.7215C95.347 23.6044 95.5978 23.6044 95.7817 23.7215L98.9917 25.5773C99.1756 25.6943 99.3094 25.8949 99.3094 26.1123V29.0213C99.3094 29.4894 99.8277 29.7904 100.246 29.5563L106.381 25.9952ZM93.4578 26.5804C93.3909 26.6305 93.3408 26.6974 93.3408 26.781V29.0548C93.3408 29.1383 93.3909 29.2219 93.4578 29.2554L95.4306 30.3923C95.4975 30.4424 95.5978 30.4424 95.6647 30.3923L97.6375 29.2554C97.7044 29.2052 97.7545 29.1383 97.7545 29.0548V26.781C97.7545 26.6974 97.7044 26.6138 97.6375 26.5804L95.6647 25.4435C95.5978 25.3933 95.4975 25.3933 95.4306 25.4435L93.4578 26.5804ZM50.9587 33.853V22.083C50.9587 21.6484 50.6912 21.2304 50.3067 21.013L40.0916 15.128C39.7405 14.9274 39.2556 14.894 38.8544 15.128L28.6392 21.013C28.2547 21.2304 27.9872 21.6316 27.9872 22.083V33.853C27.9872 34.3212 28.3048 34.7224 28.6559 34.923L38.8878 40.808C39.2891 41.0421 39.7572 41.0254 40.125 40.808L50.3234 34.923C50.6244 34.7558 50.8417 34.4716 50.9253 34.1373C50.942 34.0537 50.9587 33.9534 50.9587 33.853ZM38.5367 12.9713L38.403 13.0549H38.5869L38.5367 12.9713ZM51.2764 34.7391L51.2095 34.6221V34.7726L51.2764 34.7391Z" fill="#131313"/>
</svg>
