<svg width="78" height="69" viewBox="0 0 78 69" fill="none" xmlns="http://www.w3.org/2000/svg">
<path d="M38.6358 41.521C42.5346 41.521 45.6952 38.3604 45.6952 34.4616C45.6952 30.5628 42.5346 27.4022 38.6358 27.4022C34.737 27.4022 31.5764 30.5628 31.5764 34.4616C31.5764 38.3604 34.737 41.521 38.6358 41.521Z" fill="#61DAFB"/>
<path d="M38.637 60.4224C44.1782 65.8119 49.6436 69 54.0462 69C55.4885 69 56.8548 68.6964 57.9934 68.0132C61.9406 65.736 63.3828 60.0429 62.0165 51.9208C61.7888 50.4785 61.4851 49.0363 61.1056 47.5181C62.6238 47.0627 63.9901 46.6073 65.3564 46.1518C73.0231 43.1914 77.2739 39.0924 77.2739 34.6139C77.2739 30.0594 73.0231 25.9604 65.3564 23.0759C63.9901 22.5446 62.6238 22.0891 61.1056 21.7096C61.4851 20.1914 61.7888 18.7492 62.0165 17.3069C63.3069 9.033 61.8647 3.26403 57.9175 0.986799C56.7789 0.303631 55.4125 0 53.9703 0C49.6436 0 44.1023 3.18812 38.5611 8.57756C33.0957 3.18812 27.6304 0 23.2277 0C21.7855 0 20.4191 0.303631 19.2805 0.986799C15.3333 3.26403 13.8911 8.9571 15.2574 17.0792C15.4851 18.5215 15.7888 19.9637 16.1683 21.4818C14.6502 21.9373 13.2838 22.3927 11.9175 22.8482C4.25082 25.8086 0 29.9076 0 34.3861C0 38.9406 4.25082 43.0396 11.9175 45.9241C13.2838 46.4554 14.6502 46.9109 16.1683 47.2904C15.7888 48.8086 15.4851 50.2508 15.2574 51.6931C13.967 59.8152 15.4092 65.5842 19.2805 67.7855C20.4191 68.4686 21.7855 68.7723 23.2277 68.7723C27.6304 68.9241 33.0957 65.736 38.637 60.4224ZM34.3861 50.1749C35.7525 50.2508 37.1947 50.2508 38.637 50.2508C40.0792 50.2508 41.5215 50.2508 42.8878 50.1749C41.5215 51.9967 40.0792 53.6667 38.637 55.2607C37.1947 53.6667 35.7525 51.9967 34.3861 50.1749ZM24.9736 42.3564C25.7327 43.6469 26.4158 44.8614 27.2508 46.0759C24.8977 45.7723 22.6964 45.3927 20.571 44.9373C21.2541 42.8878 22.0132 40.7624 22.9241 38.637C23.5314 39.8515 24.2145 41.1419 24.9736 42.3564ZM20.571 24.0627C22.6964 23.6073 24.8977 23.2277 27.2508 22.9241C26.4917 24.1386 25.7327 25.3531 24.9736 26.6436C24.2145 27.934 23.5314 29.1485 22.9241 30.4389C21.9373 28.2376 21.1782 26.1122 20.571 24.0627ZM24.7459 34.462C25.7327 32.4125 26.7954 30.363 28.0099 28.3135C29.1485 26.3399 30.4389 24.3663 31.7294 22.3927C34.0066 22.2409 36.2838 22.165 38.637 22.165C41.066 22.165 43.3432 22.2409 45.5446 22.3927C46.9109 24.3663 48.1254 26.3399 49.264 28.3135C50.4785 30.363 51.5413 32.4125 52.5281 34.462C51.5413 36.5116 50.4785 38.5611 49.264 40.6106C48.1254 42.5842 46.835 44.5578 45.5446 46.5314C43.2673 46.6832 40.9901 46.7591 38.637 46.7591C36.2079 46.7591 33.9307 46.6832 31.7294 46.5314C30.363 44.5578 29.1485 42.5842 28.0099 40.6106C26.7954 38.5611 25.7327 36.5116 24.7459 34.462ZM54.4257 30.363L52.3762 26.5677C51.6172 25.2772 50.934 24.0627 50.099 22.8482C52.4521 23.1518 54.6535 23.5314 56.7789 23.9868C56.0957 26.1122 55.3366 28.2376 54.4257 30.363ZM54.4257 38.5611C55.3366 40.6865 56.0957 42.8119 56.7789 44.8614C54.6535 45.3168 52.4521 45.6964 50.099 46C50.8581 44.7855 51.6172 43.571 52.3762 42.2805C53.0594 41.1419 53.7426 39.8515 54.4257 38.5611ZM56.1716 64.901C55.5644 65.2805 54.8053 65.4323 53.9703 65.4323C50.2508 65.4323 45.6205 62.396 41.066 57.8416C43.2673 55.4885 45.3927 52.8317 47.5181 49.8713C51.0858 49.5677 54.5016 49.0363 57.6898 48.2772C58.0693 49.6436 58.297 51.0099 58.5247 52.3762C59.5875 58.8284 58.7525 63.4587 56.1716 64.901ZM60.1188 24.8977C68.6205 27.3267 73.7063 31.0462 73.7063 34.462C73.7063 37.4224 70.2145 40.3828 64.066 42.736C62.8515 43.1914 61.4851 43.6469 60.1188 44.0264C59.132 40.9142 57.9175 37.7261 56.3993 34.462C57.9175 31.198 59.2079 28.0099 60.1188 24.8977ZM54.0462 3.49175C54.8812 3.49175 55.5644 3.64356 56.2475 4.0231C58.7525 5.46535 59.6634 10.0198 58.6007 16.5479C58.3729 17.8383 58.0693 19.2046 57.7657 20.6469C54.5776 19.9637 51.1617 19.4323 47.5941 19.0528C45.5446 16.0924 43.3432 13.4356 41.1419 11.0825C45.6964 6.60396 50.3267 3.49175 54.0462 3.49175ZM42.8878 18.7492C41.5215 18.6733 40.0792 18.6733 38.637 18.6733C37.1947 18.6733 35.7525 18.6733 34.3861 18.7492C35.7525 16.9274 37.1947 15.2574 38.637 13.6634C40.0792 15.2574 41.5215 17.0033 42.8878 18.7492ZM21.1023 4.0231C21.7096 3.64356 22.4686 3.49175 23.3036 3.49175C27.0231 3.49175 31.6535 6.52805 36.2079 11.0825C34.0066 13.4356 31.8812 16.0924 29.7558 19.0528C26.1881 19.3564 22.7723 19.8878 19.5842 20.6469C19.2046 19.2805 18.9769 17.9142 18.7492 16.5479C17.6865 10.0957 18.5215 5.54125 21.1023 4.0231ZM17.1551 44.0264C8.65347 41.5974 3.56766 37.8779 3.56766 34.462C3.56766 31.5017 7.05941 28.5413 13.2079 26.1881C14.4224 25.7327 15.7888 25.2772 17.1551 24.8977C18.1419 28.0099 19.3564 31.198 20.8746 34.462C19.3564 37.7261 18.066 40.9901 17.1551 44.0264ZM18.7492 52.3762C18.9769 51.0858 19.2805 49.7195 19.5842 48.2772C22.7723 48.9604 26.1881 49.4918 29.7558 49.8713C31.8053 52.8317 34.0066 55.4885 36.2079 57.8416C31.6535 62.3201 27.0231 65.4323 23.3036 65.4323C22.4686 65.4323 21.7855 65.2805 21.1023 64.901C18.5215 63.4587 17.6865 58.8284 18.7492 52.3762Z" fill="#61DAFB"/>
</svg>
