<svg width="98" height="73" viewBox="0 0 98 73" fill="none" xmlns="http://www.w3.org/2000/svg">
<path d="M83.533 41.82C80.1378 41.835 77.1975 42.6536 74.7422 43.8663C73.8478 42.0622 72.9231 40.486 72.7714 39.3039C72.59 37.9244 72.3926 37.1062 72.605 35.4693C72.8174 33.832 73.7719 31.513 73.7569 31.3465C73.7419 31.1799 73.5447 30.3461 71.5895 30.3309C69.6343 30.3159 67.9521 30.7097 67.7549 31.225C67.5575 31.7404 67.179 32.9077 66.9516 34.1202C66.603 35.8935 63.0409 42.2292 61.0249 45.5333C60.3582 44.2454 59.7975 43.1082 59.676 42.1988C59.4942 40.8193 59.2971 40.0011 59.5093 38.3642C59.7215 36.7269 60.6763 34.4079 60.6611 34.2414C60.6459 34.0748 60.4489 33.241 58.4939 33.2258C56.5385 33.2108 54.8565 33.6046 54.659 34.1202C54.462 34.6353 54.2498 35.8479 53.8558 37.0155C53.462 38.182 48.7176 48.7312 47.4747 51.4748C46.8379 52.8689 46.2926 53.9907 45.8984 54.7488C45.8381 54.8699 45.7925 54.9458 45.7621 55.0066C45.8075 54.9308 45.8381 54.8547 45.8381 54.8855C45.5046 55.5368 45.3073 55.9007 45.3073 55.9007V55.9157C45.0496 56.4006 44.7617 56.84 44.6254 56.84C44.5343 56.84 44.3375 55.5672 44.6709 53.824C45.3831 50.156 47.0655 44.4576 47.0503 44.2601C47.0351 44.154 47.3684 43.1689 45.9437 42.6382C44.5646 42.1381 44.0643 42.9719 43.9432 42.9719C43.8221 42.9719 43.731 43.2753 43.731 43.2753C43.731 43.2753 45.262 36.8486 40.7905 36.8486C38.0017 36.8486 34.1218 39.9106 32.2121 42.6842C31.0146 43.336 28.4226 44.7455 25.6946 46.2459C24.6488 46.822 23.5726 47.4128 22.5571 47.9739C22.4814 47.8977 22.4206 47.822 22.3449 47.7463C16.9187 41.9567 6.90006 37.8643 7.32468 30.0885C7.47613 27.2541 8.46142 19.8125 26.589 10.7789C41.4428 3.38234 53.3255 5.41345 55.372 9.93005C58.3121 16.3719 49.0209 28.3609 33.5915 30.0885C27.7105 30.7403 24.6188 28.4668 23.8457 27.6182C23.0423 26.7241 22.921 26.6783 22.6179 26.8451C22.1175 27.1179 22.436 27.9061 22.6179 28.3759C23.0726 29.5732 24.9671 31.6952 28.1957 32.7562C31.0296 33.6808 37.9262 34.1963 46.2623 30.9677C55.6292 27.3602 62.9198 17.3112 60.7826 8.89941C58.6002 0.351166 44.4286 -2.45304 31.0149 2.30614C23.0273 5.1405 14.3879 9.59677 8.17349 15.4016C0.792153 22.3133 -0.389941 28.3303 0.0947931 30.8466C1.82279 39.7737 14.1299 45.5941 19.056 49.8985C18.8134 50.035 18.586 50.1563 18.374 50.2775C15.9035 51.505 6.52143 56.4158 4.172 61.6C1.51989 67.4808 4.61139 71.694 6.6425 72.2703C12.978 74.0283 19.4652 70.8606 22.9513 65.6616C26.4371 60.4631 26.0129 53.6728 24.4064 50.5807C24.391 50.5353 24.3608 50.5054 24.3459 50.4594C24.9823 50.0807 25.6338 49.7017 26.2858 49.3228C27.5437 48.5801 28.7715 47.8977 29.8475 47.3071C29.2411 48.9442 28.8017 50.9137 28.5743 53.7637C28.3016 57.098 29.6809 61.4178 31.4694 63.1154C32.2573 63.8581 33.2122 63.8735 33.8034 63.8735C35.8951 63.8735 36.8346 62.1453 37.8805 60.084C39.1689 57.5675 40.3056 54.6423 40.3056 54.6423C40.3056 54.6423 38.8809 62.5547 42.7761 62.5547C44.2008 62.5547 45.6259 60.7206 46.2621 59.7809V59.7959C46.2621 59.7959 46.2926 59.7356 46.3684 59.6145C46.5198 59.3869 46.5955 59.2504 46.5955 59.2504V59.2046C47.1714 58.2196 48.4296 55.961 50.3239 52.2327C52.7796 47.4126 55.1286 41.3952 55.1286 41.3952C55.1286 41.3952 55.3408 42.8658 56.0687 45.306C56.4929 46.7458 57.3871 48.3222 58.0994 49.8531C57.5238 50.6412 57.1749 51.096 57.1749 51.096C57.1749 51.096 57.1749 51.111 57.1897 51.1261C56.7351 51.7328 56.22 52.3846 55.6895 53.0212C53.7493 55.3249 51.4454 57.9624 51.1425 58.7201C50.7784 59.6145 50.8696 60.2808 51.5669 60.7966C52.082 61.1908 52.9916 61.2511 53.9463 61.1756C55.6895 61.0539 56.9171 60.6299 57.5082 60.3566C58.4477 60.0237 59.5393 59.4928 60.5699 58.7503C62.4646 57.3562 63.6167 55.3554 63.5102 52.7181C63.4497 51.263 62.9795 49.8078 62.4036 48.4441C62.5705 48.2013 62.7525 47.9433 62.9192 47.6862C65.9206 43.3052 68.2394 38.5011 68.2394 38.5011C68.2394 38.5011 68.4516 39.9709 69.1789 42.4113C69.5428 43.6391 70.2551 44.9881 70.9067 46.3064C68.0875 48.5953 66.3448 51.2481 65.7383 52.9906C64.6166 56.2192 65.4958 57.6739 67.1478 58.008C67.8905 58.1594 68.9515 57.8105 69.7398 57.4771C70.7249 57.1436 71.9072 56.6131 73.0136 55.7946C74.9082 54.4005 76.7423 52.4449 76.6212 49.7926C76.5755 48.5951 76.2422 47.3978 75.8026 46.2459C78.182 45.2458 81.2745 44.6997 85.215 45.1547C93.6574 46.1398 95.3092 51.4143 94.9909 53.6118C94.673 55.825 92.8997 57.0377 92.3084 57.4013C91.717 57.7652 91.5354 57.9017 91.5811 58.1744C91.6566 58.5684 91.9294 58.5535 92.4295 58.4621C93.1271 58.341 96.8554 56.6736 97.0218 52.5964C97.2648 47.443 92.3089 41.7747 83.533 41.82ZM18.4649 63.7518C15.6763 66.7984 11.7658 67.9503 10.0835 66.9802C8.2798 65.9348 8.99214 61.4482 12.4327 58.2044C14.5244 56.2342 17.2223 54.4155 19.0108 53.2939C19.42 53.0516 20.0113 52.6877 20.7388 52.2481C20.8601 52.1728 20.9207 52.1422 20.9207 52.1422C21.0569 52.0509 21.2086 51.9754 21.3602 51.8843C22.6179 56.492 21.4054 60.5538 18.4649 63.7518ZM38.8358 49.8985C37.8657 52.2779 35.8194 58.3408 34.577 58.0225C33.5159 57.7496 32.8639 53.1269 34.3648 48.5801C35.1224 46.2912 36.7289 43.5632 37.6841 42.5024C39.2146 40.7894 40.8971 40.2437 41.2913 40.9258C41.8216 41.82 39.4418 48.4133 38.8358 49.8985ZM55.6595 57.932C55.2505 58.144 54.8715 58.2803 54.6896 58.1742C54.5534 58.0985 54.8565 57.8103 54.8565 57.8103C54.8565 57.8103 56.9629 55.552 57.7967 54.521C58.2817 53.915 58.8424 53.2024 59.4488 52.4146C59.4488 52.4899 59.4636 52.5662 59.4636 52.6567C59.449 55.3702 56.842 57.2045 55.6595 57.932ZM68.6341 54.9762C68.331 54.764 68.3761 54.0516 69.3918 51.8385C69.786 50.9745 70.6956 49.5196 72.2715 48.1251C72.4535 48.701 72.5594 49.2465 72.5594 49.7618C72.544 53.1722 70.1041 54.4455 68.6341 54.9762Z" fill="#CF649A"/>
</svg>
