<svg width="77" height="43" viewBox="0 0 77 43" fill="none" xmlns="http://www.w3.org/2000/svg">
<path fill-rule="evenodd" clip-rule="evenodd" d="M42.4359 32.6891C41.7245 32.9404 40.9574 33.0769 40.1576 33.0769H36.8424C33.1231 33.0769 30.1304 30.1063 30.1304 26.442V16.558C30.1304 12.8555 33.1355 9.92308 36.8424 9.92308H40.1576C43.8769 9.92308 46.8696 12.8937 46.8696 16.558V26.442C46.8696 28.1133 46.2573 29.6277 45.2445 30.7863L47.766 33.2776L45.3987 35.6165L42.4359 32.6891ZM39.4806 29.7692H36.8226C34.9602 29.7692 33.4783 28.2886 33.4783 26.4622V16.5378C33.4783 14.6984 34.9756 13.2308 36.8226 13.2308H40.1774C42.0398 13.2308 43.5217 14.7114 43.5217 16.5378V26.4622C43.5217 27.2046 43.2778 27.8865 42.8654 28.4357L38.2969 23.922L35.9296 26.2609L39.4806 29.7692ZM10.0664 0C4.50688 0 0 4.4398 0 9.91906V33.0809C0 38.5591 4.47267 43 10.0664 43H66.9336C72.4931 43 77 38.5602 77 33.0809V9.91906C77 4.44092 72.5273 0 66.9336 0H10.0664ZM16.7555 9.92308C13.0485 9.92308 10.0435 12.8594 10.0435 16.5385C10.0435 20.192 13.0154 23.1538 16.7391 23.1538H20.0556C21.9219 23.1538 23.4348 24.622 23.4348 26.4615C23.4348 28.2883 21.9528 29.7692 20.0904 29.7692H16.7356C14.8886 29.7692 13.3913 28.26 13.3913 26.4763V26.4389H10.0435V26.458C10.0435 30.1135 13.0361 33.0769 16.7555 33.0769H20.0706C23.7775 33.0769 26.7826 30.1406 26.7826 26.4615C26.7826 22.808 23.8106 19.8462 20.087 19.8462H16.7705C14.9042 19.8462 13.3913 18.378 13.3913 16.5385C13.3913 14.7117 14.8733 13.2308 16.7356 13.2308H20.0904C21.9375 13.2308 23.4348 14.7298 23.4348 16.5385H26.7826C26.7826 12.8849 23.79 9.92308 20.0706 9.92308H16.7555ZM66.9565 29.7692V33.0769H50.2174V9.92308H53.5652V29.7692H66.9565Z" fill="#157EFB"/>
</svg>
