<svg width="32" height="32" viewBox="0 0 32 32" fill="none" xmlns="http://www.w3.org/2000/svg">
<path d="M16.0001 0.666666C7.60008 0.666666 0.666748 7.6 0.666748 16C0.666748 19.2 1.60008 22.1333 3.33341 24.6667L1.60008 29.8667C1.46675 30.1333 1.60008 30.4 1.73341 30.5333C2.00008 30.6667 2.26675 30.8 2.53341 30.6667L7.86675 28.9333C10.2667 30.5333 13.2001 31.3333 16.0001 31.3333C24.4001 31.3333 31.3334 24.4 31.3334 16C31.3334 7.6 24.4001 0.666666 16.0001 0.666666ZM25.2001 22.2667C24.8001 23.4667 23.2001 24.5333 21.8667 24.8C21.6001 24.8 21.3334 24.9333 20.9334 24.9333C19.8667 24.9333 18.5334 24.5333 16.4001 23.7333C13.7334 22.6667 11.0667 20.2667 8.93341 17.2L8.80008 17.0667C8.00008 16 6.80008 14.1333 6.80008 12.1333C6.80008 9.86667 8.00008 8.66667 8.40008 8.13333C8.93342 7.6 9.60008 7.33333 10.4001 7.33333C10.5334 7.33333 10.6667 7.33333 10.8001 7.33333H10.9334C11.6001 7.33333 12.0001 7.6 12.4001 8.4L12.6667 8.93333C13.0667 9.86667 13.6001 11.3333 13.7334 11.6C14.0001 12.1333 14.0001 12.5333 13.7334 12.9333C13.6001 13.2 13.4667 13.4667 13.2001 13.7333C13.0667 13.8667 12.9334 14 12.9334 14.1333C12.8001 14.2667 12.6667 14.4 12.5334 14.5333C12.5334 14.6667 12.5334 14.6667 12.5334 14.6667C12.9334 15.3333 13.7334 16.5333 14.8001 17.4667C16.2667 18.8 17.3334 19.2 17.8667 19.4667H18.0001C18.1334 19.4667 18.2667 19.6 18.2667 19.4667C18.5334 19.2 18.8001 18.6667 19.2001 18.2667L19.3334 18.1333C19.7334 17.6 20.2667 17.4667 20.5334 17.4667C20.6667 17.4667 20.9334 17.4667 21.0667 17.6C21.2001 17.6 21.4667 17.7333 24.0001 19.0667L24.2668 19.2C24.6667 19.3333 24.9334 19.4667 25.0667 19.8667C25.6001 20.1333 25.4667 21.3333 25.2001 22.2667Z" fill="white"/>
</svg>
